<svg xmlns="http://www.w3.org/2000/svg" xmlns:xlink="http://www.w3.org/1999/xlink" width="500" zoomAndPan="magnify" viewBox="0 0 375 374.999991" height="500" preserveAspectRatio="xMidYMid meet" version="1.0"><defs><g/><clipPath id="74ef1d2f90"><path d="M 130.089844 79.867188 L 244.839844 79.867188 L 244.839844 229.867188 L 130.089844 229.867188 Z M 130.089844 79.867188 " clip-rule="nonzero"/></clipPath></defs><g clip-path="url(#74ef1d2f90)"><path fill="#000000" d="M 244.816406 115.09375 L 244.816406 159.25 L 211.09375 159.25 L 211.09375 113.605469 L 130.117188 113.605469 L 130.117188 79.867188 L 210.09375 79.867188 C 216.304688 86.253906 232.484375 102.648438 244.816406 115.09375 Z M 130.117188 196.171875 L 163.835938 229.871094 L 163.835938 192.988281 L 211.097656 192.988281 L 211.097656 159.25 L 130.117188 159.25 Z M 130.117188 196.171875 " fill-opacity="1" fill-rule="nonzero"/></g><g fill="#000000" fill-opacity="1"><g transform="translate(116.902464, 270.745295)"><g><path d="M 2.359375 0 L 2.359375 -19.59375 L 10.03125 -19.59375 C 11.613281 -19.59375 12.984375 -19.300781 14.140625 -18.71875 C 15.296875 -18.144531 16.195312 -17.328125 16.84375 -16.265625 C 17.488281 -15.203125 17.8125 -13.953125 17.8125 -12.515625 C 17.8125 -11.097656 17.488281 -9.859375 16.84375 -8.796875 C 16.195312 -7.734375 15.296875 -6.910156 14.140625 -6.328125 C 12.984375 -5.742188 11.613281 -5.453125 10.03125 -5.453125 L 6.796875 -5.453125 L 6.796875 0 Z M 6.78125 -9.296875 L 9.65625 -9.296875 C 10.8125 -9.296875 11.703125 -9.570312 12.328125 -10.125 C 12.953125 -10.675781 13.265625 -11.460938 13.265625 -12.484375 C 13.265625 -13.515625 12.953125 -14.304688 12.328125 -14.859375 C 11.703125 -15.421875 10.8125 -15.703125 9.65625 -15.703125 L 6.78125 -15.703125 Z M 6.78125 -9.296875 "/></g></g></g><g fill="#000000" fill-opacity="1"><g transform="translate(140.363923, 270.745295)"><g><path d="M 11.640625 0.390625 C 9.609375 0.390625 7.800781 -0.0390625 6.21875 -0.90625 C 4.644531 -1.78125 3.414062 -2.976562 2.53125 -4.5 C 1.644531 -6.03125 1.203125 -7.796875 1.203125 -9.796875 C 1.203125 -11.796875 1.644531 -13.5625 2.53125 -15.09375 C 3.414062 -16.625 4.644531 -17.820312 6.21875 -18.6875 C 7.800781 -19.550781 9.609375 -19.984375 11.640625 -19.984375 C 13.703125 -19.984375 15.515625 -19.550781 17.078125 -18.6875 C 18.648438 -17.820312 19.882812 -16.625 20.78125 -15.09375 C 21.675781 -13.5625 22.125 -11.796875 22.125 -9.796875 C 22.125 -7.796875 21.675781 -6.03125 20.78125 -4.5 C 19.882812 -2.976562 18.648438 -1.78125 17.078125 -0.90625 C 15.515625 -0.0390625 13.703125 0.390625 11.640625 0.390625 Z M 5.734375 -9.796875 C 5.734375 -8.617188 5.984375 -7.582031 6.484375 -6.6875 C 6.992188 -5.789062 7.691406 -5.09375 8.578125 -4.59375 C 9.460938 -4.09375 10.484375 -3.84375 11.640625 -3.84375 C 12.816406 -3.84375 13.847656 -4.09375 14.734375 -4.59375 C 15.628906 -5.09375 16.320312 -5.789062 16.8125 -6.6875 C 17.3125 -7.582031 17.5625 -8.617188 17.5625 -9.796875 C 17.5625 -10.972656 17.3125 -12.007812 16.8125 -12.90625 C 16.320312 -13.800781 15.628906 -14.5 14.734375 -15 C 13.847656 -15.507812 12.816406 -15.765625 11.640625 -15.765625 C 10.484375 -15.765625 9.460938 -15.507812 8.578125 -15 C 7.691406 -14.5 6.992188 -13.800781 6.484375 -12.90625 C 5.984375 -12.007812 5.734375 -10.972656 5.734375 -9.796875 Z M 5.734375 -9.796875 "/></g></g></g><g fill="#000000" fill-opacity="1"><g transform="translate(168.528733, 270.745295)"><g><path d="M 7.0625 0 L 7.0625 -15.421875 L 0.84375 -15.421875 L 0.84375 -19.59375 L 17.71875 -19.59375 L 17.71875 -15.421875 L 11.515625 -15.421875 L 11.515625 0 Z M 7.0625 0 "/></g></g></g><g fill="#000000" fill-opacity="1"><g transform="translate(191.934194, 270.745295)"><g><path d="M 2.359375 0 L 2.359375 -19.59375 L 15.234375 -19.59375 L 15.234375 -15.84375 L 6.78125 -15.84375 L 6.78125 -11.78125 L 14.46875 -11.78125 L 14.46875 -8.0625 L 6.78125 -8.0625 L 6.78125 -3.78125 L 15.546875 -3.78125 L 15.546875 0 Z M 2.359375 0 "/></g></g></g><g fill="#000000" fill-opacity="1"><g transform="translate(213.743874, 270.745295)"><g><path d="M 2.359375 0 L 2.359375 -19.59375 L 6.125 -19.59375 L 14.78125 -7.671875 L 14.78125 -19.59375 L 19.203125 -19.59375 L 19.203125 0 L 15.421875 0 L 6.78125 -12.015625 L 6.78125 0 Z M 2.359375 0 "/></g></g></g><g fill="#000000" fill-opacity="1"><g transform="translate(240.144934, 270.745295)"><g><path d="M 9.1875 0.390625 C 7.539062 0.390625 6.125 0.117188 4.9375 -0.421875 C 3.75 -0.960938 2.832031 -1.734375 2.1875 -2.734375 C 1.550781 -3.734375 1.234375 -4.90625 1.234375 -6.25 L 5.59375 -6.25 C 5.59375 -5.3125 5.914062 -4.582031 6.5625 -4.0625 C 7.207031 -3.539062 8.070312 -3.28125 9.15625 -3.28125 C 10.09375 -3.28125 10.832031 -3.460938 11.375 -3.828125 C 11.914062 -4.191406 12.1875 -4.695312 12.1875 -5.34375 C 12.1875 -6.039062 11.859375 -6.601562 11.203125 -7.03125 C 10.546875 -7.457031 9.523438 -7.820312 8.140625 -8.125 C 5.847656 -8.601562 4.148438 -9.335938 3.046875 -10.328125 C 1.953125 -11.316406 1.40625 -12.609375 1.40625 -14.203125 C 1.40625 -15.992188 2.054688 -17.40625 3.359375 -18.4375 C 4.660156 -19.46875 6.441406 -19.984375 8.703125 -19.984375 C 10.253906 -19.984375 11.597656 -19.71875 12.734375 -19.1875 C 13.878906 -18.65625 14.765625 -17.910156 15.390625 -16.953125 C 16.015625 -15.992188 16.328125 -14.851562 16.328125 -13.53125 L 12.046875 -13.53125 C 12.046875 -14.40625 11.753906 -15.09375 11.171875 -15.59375 C 10.585938 -16.101562 9.785156 -16.359375 8.765625 -16.359375 C 7.828125 -16.359375 7.085938 -16.175781 6.546875 -15.8125 C 6.003906 -15.445312 5.734375 -14.9375 5.734375 -14.28125 C 5.734375 -13.6875 6.03125 -13.179688 6.625 -12.765625 C 7.226562 -12.359375 8.273438 -11.976562 9.765625 -11.625 C 12.210938 -11.039062 13.976562 -10.265625 15.0625 -9.296875 C 16.144531 -8.328125 16.6875 -7.066406 16.6875 -5.515625 C 16.6875 -3.671875 16.019531 -2.222656 14.6875 -1.171875 C 13.351562 -0.128906 11.519531 0.390625 9.1875 0.390625 Z M 9.1875 0.390625 "/></g></g></g></svg>